# xmcd CD database file
# Copyright (C) 1993-1998 Ti Kan
#
# Track frame offsets:
#	150
#	14122
#	28795
#	71462
#	84655
#	100792
#	115972
#	138382
#	150300
#	171470
#	182800
#	197252
#	207927
#	220375
#	240082
#	259457
#	275567
#	288835
#	302220
#
# Disc length: 4183 seconds
#
# Revision: 2
# Processed by: cddbd v1.4b41PL1 Copyright (c) Steve Scherf et al.
# Submitted via: xmcd 2.1 PL2
#
DISCID=15105513
DTITLE=The Nighthawks - Best Of The Nighthawks
DYEAR=1900
DGENRE=
TTITLE0=Bring It On Home
TTITLE1=9 Below Zero
TTITLE2=Shake And Finger Pop
TTITLE3=Madison Blues
TTITLE4=Red Hot Mama
TTITLE5=Can't Get Next To You
TTITLE6=You Got To Move
TTITLE7=Little By Little
TTITLE8=Are You Lonely
TTITLE9=Claudette
TTITLE10=Ubangi Stomp
TTITLE11=Sea Cruise
TTITLE12=What A Girl Can't Do
TTITLE13=I Keep Cryin'
TTITLE14=Tramp On The Highway
TTITLE15=Fat Back Mama
TTITLE16=Tripe Face Boogie
TTITLE17=Slow Down
TTITLE18=Nervous Breakdown
EXTD=
EXTT0=
EXTT1=
EXTT2=
EXTT3=
EXTT4=
EXTT5=
EXTT6=
EXTT7=
EXTT8=
EXTT9=
EXTT10=
EXTT11=
EXTT12=
EXTT13=
EXTT14=
EXTT15=
EXTT16=
EXTT17=
EXTT18=
PLAYORDER=
